<?xml version="1.0" encoding="utf-8"?>
<!-- Generator: Adobe Illustrator 19.0.0, SVG Export Plug-In . SVG Version: 6.00 Build 0)  -->
<svg version="1.1" id="layer" xmlns="http://www.w3.org/2000/svg" xmlns:xlink="http://www.w3.org/1999/xlink" x="0px" y="0px"
	 viewBox="-153 -46 652 652" style="enable-background: new -153 -46 652 652" xml:space="preserve">
<style type="text/css">
	.st0{fill:#F3B2A6;}
</style>
<path class="st0" d="M 468.9 274.9 c 0 -29.5 -18.4 -34.2 -36 -34.2 h -23.9 v 68.6 h 23.9 C 450.5 309.2 468.9 304.5 468.9 274.9 L 468.9 274.9 z M 456.5 274.9 c 0 22 -11.4 23.4 -23.6 23.4 h -5.6 l -0.4 0 c -2.4 0 -3.6 0.4 -4.7 1 l -2.6 1.7 l -2.2 -2.2 l 1.5 -0.9 v 0 c 1 -0.7 1.7 -1.6 2.3 -3 c 0.2 -0.8 0.4 -1.8 0.4 -2.9 h 0 v -34.5 c 0 -0.6 -0.1 -1.3 -0.2 -1.9 c -0.5 -1.7 -1.4 -2.8 -2.4 -3.5 l -1.5 -0.9 l 2.2 -2.2 l 2.6 1.7 c 0.5 0.3 1.1 0.5 1.8 0.7 c 0.2 0 0.9 0.1 1.1 0.1 h 7.8 C 445 251.6 456.5 253 456.5 274.9 L 456.5 274.9 z M 397.5 283.8 v -43.1 H 385 v 38.4 c 0 12.9 -2.6 20.2 -16.9 20.2 s -16.9 -7.3 -16.9 -20.2 v -38.4 h -12.5 v 43.1 c 0 17.1 9.7 26.4 29.4 26.4 C 387.7 310.2 397.5 300.9 397.5 283.8 z M 328.9 274.9 c 0 -19.9 -12.7 -35.2 -33.7 -35.2 c -21.1 0 -33.8 15.3 -33.8 35.2 c 0 20 12.7 35.3 33.8 35.3 C 316.2 310.2 328.9 295 328.9 274.9 z M 316.4 274.9 c 0 14.5 -7 24.4 -21.2 24.4 c -14.2 0 -21.2 -9.9 -21.2 -24.4 c 0 -14.4 7.1 -24.3 21.2 -24.3 C 309.4 250.6 316.4 260.5 316.4 274.9 L 316.4 274.9 z M 203.6 310.2 l 50.2 -8.8 v -12 l -48.7 8.4 l -1.4 -1.5 c 1.5 -0.4 5 -1.8 5 -4.5 l 0 -51.2 h -12.5 V 303 C 196.3 307.7 199 310.3 203.6 310.2 z M 131.4 274.9 c 0 -15.1 8 -24.3 21.5 -24.3 c 10.9 0 18.4 5.8 20 16.5 h 12.5 c -2 -16.9 -14.2 -27.4 -32.7 -27.4 c -21 0 -33.8 15.3 -33.8 35.2 c 0 20 12.8 35.3 33.8 35.3 c 18.5 0 30.7 -10.5 32.7 -27.5 H 173 c -1.6 10.7 -9.1 16.6 -20 16.6 C 139.4 299.3 131.4 290.1 131.4 274.9 z M 77.4 285.5 l 32.5 23.4 v -14.4 L 82.3 275 l 27.5 -19.5 V 241 l -32.5 23.5 h -3.5 L 41.5 241 v 14.4 L 69 275 l -27.4 19.5 v 14.4 l 32.4 -23.4 L 77.4 285.5 L 77.4 285.5 z M -37.7 281.2 h 68.6 v -12.5 h -68.6 V 281.2 z M -63.4 309.2 h 12.5 v -68.6 h -24.7 l -13.8 65.4 h -3.2 l -13.8 -65.4 h -24.7 v 68.6 h 12.5 v -57.2 l -2.2 -8.2 h 3.9 l 14.5 65.4 h 23 l 14.4 -65.4 h 4 l -2.3 8.2 V 309.2 z"/>
</svg>
